STARTFONT 2.1
COMMENT Created by fdbbdf
FONT con12
SIZE 12 78 78
FONTBOUNDINGBOX 108 108 -53 -55
STARTPROPERTIES 4
Ownership "  "
FONT_ASCENT 53
FONT_DESCENT 55
DEFAULT_CHAR 48
ENDPROPERTIES
CHARS 34
STARTCHAR 0
ENCODING -1 48
SWIDTH 0 0
DWIDTH 26 0
BBX 25 40 0 -40
BITMAP
00003e00
0000c300
00030180
000c0080
00300080
00c03080
07807080
1e40d080
3f209080
71b09080
60919080
e0d39080
c057b080
c85ea080
d45cc080
d2588100
d2500200
d2500400
d2500800
d2501000
ca502000
c4504000
c0508000
c0510000
c0530000
f0550000
3c5d0000
0fd50000
03e50000
00e50000
00050000
00050000
00050000
00050000
00050000
00050000
00050000
00050000
00050000
00050000
ENDCHAR
STARTCHAR 1
ENCODING -1 49
SWIDTH 0 0
DWIDTH 26 0
BBX 25 40 0 -40
BITMAP
00003e00
0003c300
000c8180
00308080
00208080
00e08080
07a30080
1e6c0080
3f3c0080
71bc0080
609c0080
e0dc0080
c05c0080
c05c0080
c45c0080
c4580100
cc500200
c4500400
c4500800
c4501000
cc502000
c2504000
c0508000
c0510000
c0530000
f0550000
3c5d0000
0fd50000
03e50000
00e50000
00050000
00050000
00050000
00050000
00050000
00050000
00050000
00050000
00050000
00050000
ENDCHAR
STARTCHAR 2
ENCODING -1 50
SWIDTH 0 0
DWIDTH 26 0
BBX 25 40 0 -40
BITMAP
00003e00
0003c300
000c8180
00308080
00208080
00e08080
07a30080
1e6c0080
3f3c0080
71bc0080
609c0080
e0dc0080
c05c0080
c05c0080
cc5c0080
d2580100
c1500200
c1500400
c3500800
cc501000
d8502000
c6504000
c1508000
c0510000
c0530000
f0550000
3c5d0000
0fd50000
03e50000
00e50000
00050000
00050000
00050000
00050000
00050000
00050000
00050000
00050000
00050000
00050000
ENDCHAR
STARTCHAR 3
ENCODING -1 51
SWIDTH 0 0
DWIDTH 26 0
BBX 25 40 0 -40
BITMAP
00003e00
0003c300
000c8180
00308080
00208080
00e08080
07a30080
1e6c0080
3f3c0080
71bc0080
609c0080
e0dc0080
c05c0080
c05c0080
dc5c0080
c2580100
c1500200
d9500400
c6500800
c1501000
d1502000
ce504000
c0508000
c0510000
c0530000
f0550000
3c5d0000
0fd50000
03e50000
00e50000
00050000
00050000
00050000
00050000
00050000
00050000
00050000
00050000
00050000
00050000
ENDCHAR
STARTCHAR 4
ENCODING -1 52
SWIDTH 0 0
DWIDTH 26 0
BBX 25 40 0 -40
BITMAP
00003e00
0003c300
000c8180
00308080
00208080
00e08080
07a30080
1e6c0080
3f3c0080
71bc0080
609c0080
e0dc0080
c05c0080
c05c0080
c25c0080
c6580100
ca500200
d2500400
da500800
c7501000
c2502000
c2504000
c0508000
c0510000
c0530000
f0550000
3c5d0000
0fd50000
03e50000
00e50000
00050000
00050000
00050000
00050000
00050000
00050000
00050000
00050000
00050000
00050000
ENDCHAR
STARTCHAR 5
ENCODING -1 53
SWIDTH 0 0
DWIDTH 26 0
BBX 25 40 0 -40
BITMAP
00003e00
0003c300
000c8180
00308080
00208080
00e08080
07a30080
1e6c0080
3f3c0080
71bc0080
609c0080
e0dc0080
c05c0080
c05c0080
d85c0080
d6580100
d1500200
cc500400
c2500800
c1501000
d1502000
c9504000
c6508000
c0510000
c0530000
f0550000
3c5d0000
0fd50000
03e50000
00e50000
00050000
00050000
00050000
00050000
00050000
00050000
00050000
00050000
00050000
00050000
ENDCHAR
STARTCHAR 6
ENCODING -1 54
SWIDTH 0 0
DWIDTH 26 0
BBX 25 40 0 -40
BITMAP
00003e00
0003c300
000c8180
00308080
00208080
00e08080
07a30080
1e6c0080
3f3c0080
71bc0080
609c0080
e0dc0080
c05c0080
c05c0080
cc5c0080
d2580100
d1500200
dc500400
d2500800
d1501000
d1502000
c9504000
c6508000
c0510000
c0530000
f0550000
3c5d0000
0fd50000
03e50000
00e50000
00050000
00050000
00050000
00050000
00050000
00050000
00050000
00050000
00050000
00050000
ENDCHAR
STARTCHAR 7
ENCODING -1 55
SWIDTH 0 0
DWIDTH 26 0
BBX 25 40 0 -40
BITMAP
00003e00
0003c300
000c8180
00308080
00208080
00e08080
07a30080
1e6c0080
3f3c0080
71bc0080
609c0080
e0dc0080
c05c0080
c05c0080
d85c0080
c6580100
c1500200
c2500400
c4500800
c4501000
c8502000
c8504000
c8508000
c0510000
c0530000
f0550000
3c5d0000
0fd50000
03e50000
00e50000
00050000
00050000
00050000
00050000
00050000
00050000
00050000
00050000
00050000
00050000
ENDCHAR
STARTCHAR 8
ENCODING -1 56
SWIDTH 0 0
DWIDTH 26 0
BBX 25 40 0 -40
BITMAP
00003e00
0003c300
000c8180
00308080
00208080
00e08080
07a30080
1e6c0080
3f3c0080
71bc0080
609c0080
e0dc0080
c05c0080
c05c0080
cc5c0080
d2580100
d1500200
c9500400
d6500800
d1501000
d1502000
c9504000
c6508000
c0510000
c0530000
f0550000
3c5d0000
0fd50000
03e50000
00e50000
00050000
00050000
00050000
00050000
00050000
00050000
00050000
00050000
00050000
00050000
ENDCHAR
STARTCHAR 9
ENCODING -1 57
SWIDTH 0 0
DWIDTH 26 0
BBX 25 40 0 -40
BITMAP
00003e00
0003c300
000c8180
00308080
00208080
00e08080
07a30080
1e6c0080
3f3c0080
71bc0080
609c0080
e0dc0080
c05c0080
c05c0080
cc5c0080
d2580100
d1500200
c9500400
c7500800
c1501000
d1502000
c9504000
c6508000
c0510000
c0530000
f0550000
3c5d0000
0fd50000
03e50000
00e50000
00050000
00050000
00050000
00050000
00050000
00050000
00050000
00050000
00050000
00050000
ENDCHAR
STARTCHAR A
ENCODING -1 65
SWIDTH 0 0
DWIDTH 32 0
BBX 31 30 0 -30
BITMAP
00000000
00000000
00000000
00000000
00000000
00000000
00000000
00000000
00000000
00000700
00000f80
001c0f80
001c0f80
007f07c0
03c1e0e0
07007070
0c001830
18000c18
30000618
2000020c
6000030c
40000106
c0000106
c0000102
ffffff02
ffffff02
00000000
00000000
00000000
00000000
ENDCHAR
STARTCHAR B
ENCODING -1 66
SWIDTH 0 0
DWIDTH 31 0
BBX 30 37 0 -1
BITMAP
007c0000
01fe3f80
02ffe0c0
029c0070
04790030
044b0030
04d07fc0
0550c000
055101c0
04d10000
021081c0
02087ae0
01081128
0084e2d0
007f8500
00048a00
00057400
000f2800
000e1800
001e0e00
00140300
00148100
00368180
002e4080
006d60c0
005d1040
005d1040
00f5e0c0
00920080
00920180
01910100
0110c900
0e2049f0
782087cc
78430034
484400bc
ff87ffe0
ENDCHAR
STARTCHAR C
ENCODING -1 67
SWIDTH 0 0
DWIDTH 26 0
BBX 25 35 0 -40
BITMAP
00040000
000e0000
001f0000
0e0e3800
11044400
20848200
41084100
42082100
473e7100
2bc9ea00
16083400
09084800
11004400
20000200
20000200
58000d00
40000100
40000100
8e000080
81c00080
f0380780
80080080
80080080
40080100
40080100
58080d00
20000200
20000200
11004400
09084800
0e083800
11c9c400
103e0400
38000e00
38000e00
ENDCHAR
STARTCHAR D
ENCODING -1 68
SWIDTH 0 0
DWIDTH 0 0
BBX 8 8 0 -4
BITMAP
3c00
7e00
ff00
ff00
ff00
ff00
7e00
3c00
ENDCHAR
STARTCHAR E
ENCODING -1 69
SWIDTH 0 0
DWIDTH 0 0
BBX 13 51 0 -26
BITMAP
3fe0
7ff0
7870
f378
f378
f078
f378
f378
f778
fff8
fff8
fff8
fbf8
f3f8
f3f8
f3f8
f3f8
f278
f0f8
fff8
fff8
fff8
f878
f3f8
f3f8
f1f8
f3f8
f3f8
f078
fff8
fff8
fff8
f8f8
f078
f378
f278
f1f8
f2f8
f678
fff8
fff8
fff8
f878
f0f8
fdf8
fdf8
fdf8
fdf8
7df0
7ff0
3fe0
ENDCHAR
STARTCHAR G
ENCODING -1 71
SWIDTH 0 0
DWIDTH 26 0
BBX 25 35 0 -40
BITMAP
00000000
00000000
00000000
00000000
00000000
00000000
00000000
00000000
003e0000
003e0000
0c3e1800
1effbc00
3ffffe00
3ffffe00
1ffffc00
0ffff800
1ffffc00
1ffffc00
ffe3ff80
ffc1ff80
ffc1ff80
ffc1ff80
ffe3ff80
1ffffc00
1ffffc00
0ffff800
1ffffc00
3ffffe00
3ffffe00
1effbc00
0c3e1800
003e0000
003e0000
00000000
00000000
ENDCHAR
STARTCHAR H
ENCODING -1 72
SWIDTH 0 0
DWIDTH 0 0
BBX 9 77 -2 -39
BITMAP
0000
4600
c900
4100
4200
4400
4800
4800
ef00
0000
0000
0000
4600
c900
4900
4900
4900
4900
4900
e600
0000
0000
0000
1800
2400
2400
1800
2400
2400
2400
1800
0000
0000
0000
1800
2400
2000
3800
2400
2400
2400
1800
0000
0000
0000
2400
2400
2400
3c00
0400
0400
0400
0400
0000
0000
0000
1800
2400
0400
0800
1000
2000
2000
3c00
0000
0000
0000
1800
2400
2400
2400
2400
2400
2400
1800
0000
0000
ENDCHAR
STARTCHAR M
ENCODING -1 77
SWIDTH 0 0
DWIDTH 0 0
BBX 25 30 -11 -14
BITMAP
00003e00
0000c300
00030180
000c0080
00300080
00c03080
07807080
1e40d080
3f209080
71b09080
60919080
e0d39080
c057b080
d84ea080
d65cc080
da588100
ce500200
c2400400
c0500800
c0501000
c0502000
c0504000
c0508000
c0510000
c0520000
f0540000
3c580000
0fd00000
03e00000
00e00000
ENDCHAR
STARTCHAR O
ENCODING -1 79
SWIDTH 0 0
DWIDTH 26 0
BBX 25 35 0 -40
BITMAP
00000000
00000000
00000000
00000000
00000000
00000000
00000000
00000000
003e0000
01ffc000
07fff000
0ffff800
1ffffc00
3ffffe00
3ffffe00
7fffff00
7fffff00
7fffff00
ffe3ff80
ffc1ff80
ffc1ff80
ffc1ff80
ffe3ff80
7fffff00
7fffff00
7fffff00
3ffffe00
3ffffe00
1ffffc00
0ffff800
07fff000
01ffc000
003e0000
00000000
00000000
ENDCHAR
STARTCHAR P
ENCODING -1 80
SWIDTH 0 0
DWIDTH 0 0
BBX 13 17 0 -9
BITMAP
fff8
fff8
c018
c018
c018
c018
c018
c018
c018
c018
c018
c018
c018
c018
c018
fff8
fff8
ENDCHAR
STARTCHAR Q
ENCODING -1 81
SWIDTH 0 0
DWIDTH 26 0
BBX 25 35 0 -40
BITMAP
00000000
00000000
00000000
00000000
00000000
00000000
00000000
00000000
003e0000
01ffc000
07fff000
0ffff800
1ffffc00
3ffffe00
3ffffe00
7fffff00
7fffff00
7fffff00
ffe3ff80
ffc1ff80
ffc1ff80
ffc1ff80
ffe3ff80
7fffff00
7fffff00
7fffff00
3ffffe00
3ffffe00
1ffffc00
0ffff800
07fff000
01ffc000
003e0000
00000000
00000000
ENDCHAR
STARTCHAR R
ENCODING -1 82
SWIDTH 0 0
DWIDTH 26 0
BBX 25 40 0 -40
BITMAP
00000000
00000000
00000000
003fff00
007fff80
00600180
00600180
00600180
00600180
00600180
06660180
036c0180
01f80180
00f00180
00600180
7fffe180
fffff180
c0003180
c0003180
c0003180
c0003180
c0003180
fffff180
7fffe180
00600180
00600180
00600180
00600180
00600180
00600180
00600180
00600180
00600180
007fff80
003fff00
00000000
00000000
00000000
00000000
00000000
ENDCHAR
STARTCHAR S
ENCODING -1 83
SWIDTH 0 0
DWIDTH 30 0
BBX 9 77 -2 -40
BITMAP
0000
6300
9480
8480
e480
9480
9480
9480
6300
0000
0000
0000
f300
8480
8480
e480
1480
1480
9480
6300
0000
0000
0000
9300
9480
9480
f480
1480
1480
1480
1300
0000
0000
0000
6300
9480
1480
6480
1480
1480
9480
6300
0000
0000
0000
6300
9480
1480
2480
4480
8480
8480
f300
0000
0000
0000
2300
6480
2480
2480
2480
2480
2480
7300
0000
0000
0000
0c00
1200
1200
1200
1200
1200
1200
0c00
0000
0000
ENDCHAR
STARTCHAR T
ENCODING -1 84
SWIDTH 0 0
DWIDTH 35 0
BBX 47 44 -6 -39
BITMAP
00007ffe0000
003f8001f800
1fc0000007f0
100000000010
17ffffffffd0
140000000050
140000000050
140000000050
140000000050
140000000050
140000000050
140000000050
140000000050
140000000050
140000000050
140000000050
140000000050
140000000050
140000000050
140000000050
140000000050
140000000050
140000000050
140000000050
140000000050
140000000050
140000000050
140000000050
140000000050
140000000050
17ffffffffd0
100000000010
1fc0000007f0
003f0001f800
0000fffe0000
000000000000
07ffffffffc0
080000000020
111111111110
200000000008
444444444444
fffffffffffe
800000000002
fffffffffffe
ENDCHAR
STARTCHAR a
ENCODING -1 97
SWIDTH 0 0
DWIDTH 0 0
BBX 11 11 -5 -6
BITMAP
0400
6ec0
7bc0
2a80
71c0
c060
71c0
2a80
7bc0
6ec0
0400
ENDCHAR
STARTCHAR b
ENCODING -1 98
SWIDTH 0 0
DWIDTH 0 0
BBX 12 10 0 -5
BITMAP
fff0
fff0
c030
c030
c030
c030
c030
c030
fff0
fff0
ENDCHAR
STARTCHAR c
ENCODING -1 99
SWIDTH 0 0
DWIDTH 0 0
BBX 108 102 -53 -51
BITMAP
0000000000000000000000000000
0000000000001180000000000000
0000000000003240000000000000
0000000000001040000000000000
0000000000001080000000000000
0000000000001100000000000000
0000000000001200000000000000
0000000880001200000000000000
0000001980003bc0000000000000
0000000880000000000200000000
0000000880000000000600000000
0000000880000000000200000000
0000000880000000000200000000
0000000880000000000200000000
0000001dc0000000000200000000
0000000000000000000200000000
0000000000000000000700000000
0000000000000000000000000000
0000000000000000000000000000
0000000000000000000000000000
0000000000000000000000000000
0000000000000000000000000000
0000000000000000000000000000
0000000000000000000000000000
00230000000000000000000c0000
0064800000000000000000120000
0024800000000000000000020000
0024800000000000000000040000
0024800000000000000000080000
0024800000000000000000100000
0024800000000000000000100000
00730000000000000000001e0000
0000000000000000000000000000
0000000000000000000000000000
0000000000000000000000000000
0000000000000000000000000000
0000000000000000000000000000
0000000000000000000000000000
0000000000000000000000000000
0000000000000000000000000000
0000000000000000000000000000
0000000000000000000000000000
0000000000000000000000000000
0000000000000000000000000000
0000000000000000000000000000
0000000000000000000000000000
0000000000000000000000000000
0000000000000000000000000000
0300000000000000000000000c00
0480000000000000000000001200
0480000000000000000000000200
0380000000000000000000000c00
0080000000000000000000000200
0080000000000000000000000200
0480000000000000000000001200
0300000000000000000000000c00
0000000000000000000000000000
0000000000000000000000000000
0000000000000000000000000000
0000000000000000000000000000
0000000000000000000000000000
0000000000000000000000000000
0000000000000000000000000000
0000000000000000000000000000
0000000000000000000000000000
0000000000000000000000000000
0000000000000000000000000000
0000000000000000000000000000
0000000000000000000000000000
0000000000000000000000000000
0000000000000000000000000000
0000000000000000000000000000
0003000000000000000000120000
0004800000000000000000120000
0004800000000000000000120000
00030000000000000000001e0000
0004800000000000000000020000
0004800000000000000000020000
0004800000000000000000020000
0003000000000000000000020000
0000000000000000000000000000
0000000000000000000000000000
0000000000000000000000000000
0000000000000000000000000000
0000000000000000000000000000
0000000000000000000000000000
0000000000000000000000000000
0000000f00000000000000000000
0000000100000000000780000000
0000000100000000000400000000
0000000200000000000400000000
0000000400000000000700000000
0000000400000000000080000000
0000000400000000000080000000
0000000400000600000480000000
0000000000000900000300000000
0000000000000800000000000000
0000000000000e00000000000000
0000000000000900000000000000
0000000000000900000000000000
0000000000000900000000000000
0000000000000600000000000000
ENDCHAR
STARTCHAR f
ENCODING -1 102
SWIDTH 0 0
DWIDTH 8 0
BBX 12 15 4 -8
BITMAP
00c0
01e0
0110
0080
0080
0040
0f40
3fc0
7fc0
8f80
0200
0200
0200
0200
0700
ENDCHAR
STARTCHAR m
ENCODING -1 109
SWIDTH 0 0
DWIDTH 30 0
BBX 9 77 -2 -40
BITMAP
0000
6300
9480
8480
e480
9480
9480
9480
6300
0000
0000
0000
f300
8480
8480
e480
1480
1480
9480
6300
0000
0000
0000
9300
9480
9480
f480
1480
1480
1480
1300
0000
0000
0000
6300
9480
1480
6480
1480
1480
9480
6300
0000
0000
0000
6300
9480
1480
2480
4480
8480
8480
f300
0000
0000
0000
2300
6480
2480
2480
2480
2480
2480
7300
0000
0000
0000
0c00
1200
1200
1200
1200
1200
1200
0c00
0000
0000
ENDCHAR
STARTCHAR p
ENCODING -1 112
SWIDTH 0 0
DWIDTH 9 0
BBX 35 21 -18 -12
BITMAP
00007ff80000
000080100000
000100200000
00027e400000
000200400000
0004f8800000
000801000000
0073f3ffc000
019002006000
06e00781a000
18ffff862000
600000182000
7fffffe02000
800000202000
800000202000
800000206000
80000021c000
800000260000
800000380000
ffffffe00000
380007000000
ENDCHAR
STARTCHAR q
ENCODING -1 113
SWIDTH 0 0
DWIDTH 24 0
BBX 20 19 0 -19
BITMAP
03fc0000
0fff0000
1fff8000
3fffc000
7c07e000
7c03e000
fcf1f000
fcf9f000
fcf1f000
fc03f000
fc07f000
fce7f000
fcf3f000
7cf3e000
7cf9e000
3fffc000
1fff8000
0fff0000
03fc0000
ENDCHAR
STARTCHAR r
ENCODING -1 114
SWIDTH 0 0
DWIDTH 24 0
BBX 20 19 0 -19
BITMAP
03fc0000
0e070000
18018000
3000c000
63f86000
43fc2000
c30e3000
83061000
830e1000
83fc1000
83f81000
83181000
c30c3000
430c2000
63066000
3000c000
18018000
0e070000
03fc0000
ENDCHAR
STARTCHAR s
ENCODING -1 115
SWIDTH 0 0
DWIDTH 24 0
BBX 20 19 0 -19
BITMAP
03fc0000
0e070000
18018000
3000c000
61f86000
43fc2000
c30c3000
83001000
83f81000
81fc1000
800c1000
800c1000
c30c3000
43fc2000
61f86000
3000c000
18018000
0e070000
03fc0000
ENDCHAR
STARTCHAR t
ENCODING -1 116
SWIDTH 0 0
DWIDTH 0 0
BBX 12 108 0 -55
BITMAP
0000
0000
0000
0000
0000
0000
30c0
30c0
30c0
30c0
30c0
30c0
30c0
39c0
1f80
0f00
0000
0000
0000
1f80
3fc0
30c0
3800
3f00
1f80
01c0
30c0
3fc0
1f80
0000
0000
0000
1f80
3fc0
3840
3000
3e00
3e00
3000
3840
3fc0
1f80
0000
0000
0000
1f80
3fc0
30c0
30c0
3fc0
3f80
3180
31c0
30c0
30c0
0000
0000
0000
0000
0000
0000
0000
0000
0000
1f80
3fc0
30c0
3800
3f00
1f80
01c0
00c0
30c0
3fc0
1f80
0000
0000
0000
0000
30c0
30c0
39c0
1f80
0f00
0600
0600
0600
0600
0600
0000
0000
0000
0000
1f80
3fc0
30c0
3800
3f00
1f80
01c0
00c0
30c0
3fc0
1f80
0000
0000
0000
0000
ENDCHAR
ENDFONT
